<svg xmlns="http://www.w3.org/2000/svg" viewBox="0 0 200 60"><path fill="#d00000" d="M0 0h60.85v60H0z"/><path fill="#fff" d="M22.63 46.31V35.17l4.59-4.51 11.51 16.77 5.27.04.97-1.96-13.39-19.15L43.91 14l-.68-1.96h-5.26L22.64 27.15V13.19l-1.12-1.15h-3.81l-1.12 1.15v33.07l1.18 1.18h3.67l1.2-1.13Z"/><path fill="#fff" d="M79.62 12.04h4.54V29.8h.16l14.95-17.76h5.15L93.2 25.53l12.97 21.92h-5.09L90.35 29.04l-6.19 7.18v11.23h-4.54zm28.9 22.35c-.03-1.98.31-3.95 1.01-5.8.61-1.61 1.52-3.08 2.68-4.35a11.7 11.7 0 0 1 3.8-2.73c1.4-.62 2.91-.95 4.43-.94 1.55-.03 3.09.27 4.52.86 1.3.55 2.44 1.4 3.34 2.48.93 1.15 1.63 2.47 2.05 3.89.49 1.65.73 3.36.71 5.07.01.81-.04 1.63-.16 2.43h-17.96c.04 2.5.99 4.89 2.66 6.75a8.22 8.22 0 0 0 6.21 2.48c1.2.01 2.39-.18 3.53-.57 1.08-.38 2.12-.88 3.09-1.48l1.59 2.91c-1.23.75-2.53 1.38-3.89 1.89-1.56.56-3.21.84-4.87.81-1.72.01-3.42-.31-5.01-.94-1.52-.61-2.9-1.53-4.05-2.7a12.5 12.5 0 0 1-2.71-4.29c-.68-1.85-1.02-3.81-.99-5.78Zm18.61-2c.15-2.2-.46-4.38-1.72-6.18a5.87 5.87 0 0 0-4.84-2.13c-.93 0-1.86.19-2.71.57-.87.39-1.66.94-2.33 1.62a8.5 8.5 0 0 0-1.72 2.59c-.48 1.12-.79 2.32-.9 3.54h14.23Zm10.52-11.17h3.72l.38 4.75h.16a12.2 12.2 0 0 1 3.31-3.94 6.94 6.94 0 0 1 4.24-1.46c.98-.02 1.94.17 2.85.54l-.88 3.89c-.39-.13-.8-.24-1.2-.32-.45-.08-.91-.12-1.37-.11-1.29.06-2.53.53-3.53 1.35a10.67 10.67 0 0 0-3.2 4.7v16.84h-4.49V21.23Zm16.31 19.43a7.25 7.25 0 0 1 3.91-6.61c2.61-1.53 6.76-2.6 12.46-3.21 0-.82-.08-1.63-.25-2.43-.15-.75-.45-1.47-.88-2.11-.43-.62-1-1.13-1.67-1.48-.83-.41-1.76-.6-2.68-.57-1.49-.01-2.98.28-4.35.86-1.25.53-2.45 1.18-3.59 1.94l-1.81-3.08c1.44-.9 2.97-1.66 4.54-2.29 1.88-.75 3.89-1.13 5.91-1.11 3.25 0 5.6.98 7.06 2.94 1.56 2.31 2.33 5.07 2.19 7.85v16.09h-3.72l-.38-3.13h-.11a22 22 0 0 1-4.13 2.67c-1.45.73-3.06 1.11-4.68 1.11-2.05.08-4.05-.62-5.61-1.94a6.94 6.94 0 0 1-2.22-5.51Zm4.43-.32c-.12 1.24.38 2.45 1.34 3.24.97.67 2.13 1.01 3.31.97 1.27 0 2.52-.3 3.64-.89 1.32-.71 2.54-1.59 3.64-2.62v-7.29c-1.9.23-3.78.57-5.64 1.03-1.29.3-2.53.77-3.7 1.4a5.26 5.26 0 0 0-2 1.86c-.4.7-.61 1.49-.6 2.29Zm24.2 1.19c1.1.89 2.3 1.66 3.58 2.27 1.33.6 2.78.89 4.24.86 1.42.11 2.82-.32 3.94-1.19.85-.73 1.33-1.8 1.31-2.91.01-.64-.18-1.26-.55-1.78a5.3 5.3 0 0 0-1.4-1.32c-.61-.4-1.26-.74-1.94-1l-2.19-.86q-1.44-.495-2.85-1.11c-.91-.39-1.77-.9-2.55-1.51a7.8 7.8 0 0 1-1.83-2.08 5.5 5.5 0 0 1-.71-2.86c0-1.01.21-2.02.63-2.94a6.7 6.7 0 0 1 1.81-2.37 8.7 8.7 0 0 1 2.87-1.57c2.77-.85 5.75-.74 8.46.3 1.31.52 2.54 1.23 3.64 2.11l-2.14 2.81c-.88-.67-1.84-1.23-2.85-1.67a8 8 0 0 0-3.23-.65c-1.33-.11-2.66.29-3.7 1.13-.75.68-1.18 1.64-1.18 2.64-.01.57.16 1.13.49 1.59.36.48.8.88 1.31 1.19.6.37 1.23.67 1.89.92q1.065.405 2.22.84c.96.37 1.92.74 2.87 1.13.93.37 1.8.87 2.6 1.48.77.6 1.41 1.34 1.89 2.19.52.96.77 2.04.74 3.13 0 1.04-.21 2.07-.63 3.02-.43.95-1.07 1.8-1.86 2.48-.9.76-1.94 1.34-3.07 1.7-1.35.43-2.77.64-4.19.62-1.86 0-3.7-.34-5.42-1.03a17 17 0 0 1-4.49-2.59l2.24-2.97Z" style="fill:#2e2e2e;fill-opacity:1"/></svg>