<svg xmlns="http://www.w3.org/2000/svg" xml:space="preserve" width="1701.232px" height="324.498px" x="0px" y="0px" viewBox="0 0 1701.232 324.498"><path fill="#FFF" d="M1679.391 248.44v-4.688h3.012c1.695 0 3.955.132 3.955 2.128 0 2.165-1.318 2.56-3.2 2.56h-3.767zm0 3.295h2.07l4.52 8.19h5.084l-5.084-8.53c2.637-.188 4.896-1.468 4.896-5.063 0-4.464-3.013-5.895-8.285-5.895h-7.53v19.488h4.33v-8.19h-.001zm21.841-1.525c0-11.448-8.851-18.096-18.83-18.096s-18.828 6.647-18.828 18.096c0 11.447 8.85 18.112 18.83 18.112 9.979.001 18.828-6.665 18.828-18.112m-5.272 0c0 8.34-6.213 13.933-13.558 13.933v-.056c-7.342.056-13.368-5.536-13.368-13.877 0-8.343 6.026-13.915 13.37-13.915 7.343 0 13.556 5.572 13.556 13.915M1011.071 56.458l.019 205.463h58.03V56.458h-58.049zm-456.474-.282v205.745h58.54V105.696l45.359.021c15.026 0 25.72 3.746 32.97 11.466 9.17 9.772 12.916 25.551 12.916 54.397v90.342h56.714v-113.67c0-81.137-51.705-92.075-102.299-92.075h-104.2v-.001zm549.904.301v205.444h94.107c50.142 0 66.505-8.341 84.223-27.038 12.503-13.124 20.58-41.933 20.58-73.435 0-28.864-6.835-54.642-18.772-70.684-21.503-28.696-52.477-34.288-98.701-34.288h-81.437v.001zm57.56 44.72h24.949c36.19 0 59.594 16.268 59.594 58.427 0 42.195-23.404 58.444-59.594 58.444h-24.949V101.197zm-234.648-44.72-48.428 162.815-46.414-162.815h-62.626l66.26 205.444h83.639l66.787-205.444h-59.218zm403 205.444h58.03V56.477h-58.03v205.444zm162.664-205.387-81.022 205.311h57.223l12.822-36.284h95.803l12.238 36.284h62.137l-81.719-205.313h-77.481v.002zm37.677 37.47 35.098 96.178h-71.362l36.264-96.178z"/><path fill="#77B900" d="M182.974 96.832V67.514a212.55 212.55 0 0 1 8.644-.447c80.171-2.516 132.758 68.89 132.758 68.89s-56.802 78.896-117.708 78.896c-8.766 0-16.627-1.42-23.694-3.79V122.18c31.208 3.768 37.48 17.555 56.243 48.83l41.73-35.188s-30.459-39.951-81.804-39.951c-5.591-.001-10.936.39-16.169.961m0-96.832v43.787c2.874-.235 5.759-.414 8.644-.516 111.49-3.757 184.114 91.42 184.114 91.42s-83.425 101.45-170.339 101.45c-7.961 0-15.42-.738-22.419-1.979v27.069c5.982.76 12.2 1.208 18.673 1.208 80.876 0 139.367-41.304 196.012-90.189 9.382 7.524 47.824 25.807 55.74 33.823-53.861 45.084-179.362 81.425-250.51 81.425-6.855 0-13.452-.414-19.915-1.04v38.039h307.402V-.001L182.974 0zm0 211.062v23.102c-74.815-13.328-95.58-91.097-95.58-91.097s35.927-39.795 95.58-46.234v25.348c-.056 0-.078-.011-.123-.011-31.297-3.757-55.762 25.482-55.762 25.482s13.709 49.243 55.885 63.41m-132.87-71.361s44.335-65.423 132.87-72.188V43.787C84.912 51.647 0 134.692 0 134.692S48.092 273.735 182.974 286.46v-25.225c-98.979-12.457-132.87-121.531-132.87-121.531"/></svg>