<svg xmlns="http://www.w3.org/2000/svg" role="img" viewBox="98.93 97.43 731.64 212.14"><title>PyTorch Logo 2022_RGB_PyTorchLogo_Horiz_fullColorWhite_RGB.svg</title><defs><style>.cls-1{fill:#fff}.cls-2{fill:#de3412}</style></defs><path d="M213.49 153.37l-10.4 10.4c17.24 17.24 17.24 45.18 0 62.41-17.23 17.24-45.18 17.24-62.41 0-17.24-17.23-17.24-45.18 0-62.41h-.01l27.49-27.5 3.71-3.71h.01v-20.79l-41.61 41.61c-22.98 22.98-22.98 60.24 0 83.22 22.98 22.98 60.24 22.98 83.22 0 22.98-22.98 22.98-60.24 0-83.22" class="cls-2"/><path d="M198.07 148.39c2.99-2.99 2.99-7.83 0-10.82s-7.83-2.99-10.82 0-2.99 7.83 0 10.82 7.83 2.99 10.82 0" class="cls-2"/><g><path d="M329.21 153.45h-16.12v50.84l15.76-.35c20.9-.36 32.24-8.68 32.24-25.86 0-15.76-11.16-24.62-31.88-24.62m-1.06 61.11l-15.06.17v38.97h-11.34V143h27.81c29.23 0 43.22 14.17 43.22 34.54 0 24.27-17.18 36.67-44.64 37.02m95.68 38.26l-6.56 17.53c-7.44 19.84-15.23 25.51-26.21 25.51-6.2 0-10.8-1.59-15.76-3.72l3.37-10.1c3.9 2.13 7.97 3.54 12.4 3.54 6.2 0 10.81-3.37 16.65-18.77l5.49-14.35-31.71-79.89h11.87l25.51 66.96 24.98-66.96h11.51l-31.53 80.24z" class="cls-1"/><path d="M492.75 153.63V253.7h-11.34V153.63h-38.97V143h89.28v10.63h-38.97z" class="cls-1"/><path d="M564.1 180.2c-17.18 0-28.52 13.64-28.52 32.77s11.51 33.12 28.7 33.12 28.52-13.64 28.52-32.77-11.51-33.12-28.7-33.12m-.36 75.81c-22.5 0-39.15-16.65-39.15-42.69s17.36-43.04 40.03-43.04 38.97 16.65 38.97 42.69-17.36 43.04-39.85 43.04m67.49-2.3h-10.98v-81.13l10.98-2.3v17.36c5.31-10.45 13.28-17.36 23.91-17.36 5.32 0 10.45 1.59 14.17 3.72l-2.84 10.27c-3.54-2.12-7.79-3.54-12.4-3.54-8.5 0-16.47 6.38-22.85 20.9v52.08zm81.38 2.3c-24.45 0-39.68-17.54-39.68-42.69s16.83-43.04 39.85-43.04c9.92 0 18.42 2.48 25.33 6.91l-2.84 9.92c-6.2-4.07-13.99-6.55-22.5-6.55-17.54 0-28.52 13.11-28.52 32.41s11.51 32.77 28.69 32.77c8.15 0 16.3-2.66 22.5-6.73l2.3 10.1c-6.91 4.25-15.76 6.91-25.15 6.91m93.42-2.31v-52.43c0-14.17-5.67-20.55-17.36-20.55-9.39 0-18.42 4.79-25.15 11.51v61.47h-10.98V134.32l10.98-2.3v51.19c8.5-8.5 19.13-12.93 28.16-12.93 15.76 0 25.33 10.1 25.33 27.81v55.62h-10.98z" class="cls-1"/></g></svg>